<svg id="bb36f569-23ad-400e-ac66-1d83d978105c" xmlns="http://www.w3.org/2000/svg" viewBox="0 0 356.7 677.27"><path d="M525.77,1345.44,523,1059.27s-4.81-72.91,79.11-72.23,83.24,72.23,83.24,72.23v286.17c99.08,47.66,85.82,286-84.62,270.34C427.69,1604.31,452,1407.23,525.77,1345.44Z" transform="translate(-426.31 -982.04)" style="fill:#fff;stroke:#000;stroke-miterlimit:10;stroke-width:10px"/><path d="M527.28,1342.69c-183.07,104.43-50.5,296.53-36.46,152,19.7,38,64.94-31,36.46-50.56,27.54,16.08,28.69-56.38,4.82-58.81" transform="translate(-426.31 -982.04)" style="fill:#fff;stroke:#000;stroke-linecap:round;stroke-linejoin:round;stroke-width:10px"/><path d="M683.87,1342.69s68.79,44,85.3,89.42c15.5,42.62,11.7,112.72-19.95,113.8S719,1494,719,1494c-31.64,30.07-42.9-42.17-35.09-49.73-27.36,8.19-32.51-57-8.94-59" transform="translate(-426.31 -982.04)" style="fill:#fff;stroke:#000;stroke-linecap:round;stroke-linejoin:round;stroke-width:10px"/><path d="M528.24,1590.1" transform="translate(-426.31 -982.04)" style="fill:#fff;stroke:#000;stroke-miterlimit:10;stroke-width:10px"/><polygon points="101.92 653.69 79.08 672.27 118.84 672.27 101.92 653.69" style="fill:#f7931e;stroke:#000;stroke-linejoin:round;stroke-width:10px"/><line x1="101.92" y1="608.06" x2="101.92" y2="653.69" style="fill:#fff;stroke:#000;stroke-miterlimit:10;stroke-width:10px"/><polygon points="253.12 656.44 232.21 672.27 271 672.27 253.12 656.44" style="fill:#f7931e;stroke:#000;stroke-linejoin:round;stroke-width:10px"/><line x1="252.5" y1="613.92" x2="253.12" y2="656.44" style="fill:#fff;stroke:#000;stroke-miterlimit:10;stroke-width:10px"/><path d="M577.66,1081.83c.18,12.72-19.8,12.72-19.61,0C557.87,1069.12,577.84,1069.12,577.66,1081.83Z" transform="translate(-426.31 -982.04)"/><path d="M648.46,1081.83c.18,12.72-19.79,12.72-19.61,0C628.67,1069.12,648.65,1069.12,648.46,1081.83Z" transform="translate(-426.31 -982.04)"/><path d="M548.15,1153.52H656.29l-20.63-9.18-6.88-41s-2.93-11.66-23.39-11.66c-31.83,0-31.64,11-31.64,11l-6,37.82Z" transform="translate(-426.31 -982.04)" style="fill:#f7931e;stroke:#000;stroke-linecap:round;stroke-linejoin:round;stroke-width:5px"/><path d="M555.86,1153.52c14,23,75.48,26.91,89.6,0Z" transform="translate(-426.31 -982.04)" style="fill:#f7931e;stroke:#000;stroke-linecap:round;stroke-linejoin:round;stroke-width:5px"/></svg>