<svg xmlns="http://www.w3.org/2000/svg" viewBox="0 0 553.05 1141.57"><defs><style>.a,.d{fill:#fff;}.a,.b,.c,.d{stroke:#000;}.a{stroke-miterlimit:10;}.a,.b,.c,.d,.e{stroke-width:10px;}.b,.c{fill:#f7931e;}.b,.d{stroke-linecap:round;}.b,.c,.d,.e{stroke-linejoin:round;}.e{fill:aqua;stroke:#0071bc;}</style></defs><path class="a" d="M814,1334c0,125.92-102.08,228-228,228s-228-102.08-228-228a227.76,227.76,0,0,1,103-190.7V711a125,125,0,0,1,250,0v432.3A227.76,227.76,0,0,1,814,1334Z" transform="translate(-308.95 -581)"/><circle cx="223.55" cy="157.5" r="18.5"/><circle cx="324.55" cy="157.5" r="18.5"/><path class="b" d="M537.61,773.1l-11.84,62.41L495.5,850H660l-30.27-16.72L623.15,772S621.84,757.5,581,757.5C536.3,757.5,537.61,773.1,537.61,773.1Z" transform="translate(-308.95 -581)"/><path class="c" d="M504.36,851a150.14,150.14,0,0,0,20.51,9.62c12.55,4.88,29.67,9.88,48,10.38,36.6,1,79.11-20,79.11-20Z" transform="translate(-308.95 -581)"/><polyline class="c" points="162.21 950.01 162.05 1019 126.05 1046 189.05 1046 165.05 1023"/><polyline class="c" points="394.17 950.49 394.01 1019.48 358.01 1046.48 421.01 1046.48 397.01 1023.48"/><path class="d" d="M461.87,1143.87S321.1,1210,314.5,1335.89c-6,115,40,120,40,120s23.46,13.1,44.64-21.24c14.63-23.72,7.39-58.76,7.39-58.76s31.28,19.47,46.55-11.48c14.2-28.76,9.1-61.82,9.1-61.82s28.65,12.67,32.54-36.7c3.73-47.42-20.19-56.1-20.19-56.1" transform="translate(-308.95 -581)"/><path class="d" d="M711.59,1144.23s140,67.8,145.08,193.76c4.67,115.11-41.45,119.54-41.45,119.54s-23.61,12.82-44.39-21.76c-14.34-23.89-6.69-58.85-6.69-58.85s-31.5,19.1-46.41-12c-13.85-28.93-8.36-61.92-8.36-61.92s-28.8,12.33-32.1-37.08c-3.17-47.47,20.86-55.86,20.86-55.86" transform="translate(-308.95 -581)"/><path class="e" d="M604.26,855,621,1642s190,6,146,43-189,32-189,32-112.88,7-161-28c-55-40,140-41,140-41V855" transform="translate(-308.95 -581)"/></svg>